<mxfile host="app.diagrams.net" modified="2022-03-05T21:16:46.874Z" agent="5.0 (X11)" etag="w-kD5mfoh0IlZWJyaHjc" version="16.6.6" type="github">
  <diagram id="4lo_nmIDdEoz6fG_vJWp" name="Page-1">
    <mxGraphModel dx="702" dy="1659" grid="1" gridSize="10" guides="1" tooltips="1" connect="1" arrows="1" fold="1" page="1" pageScale="1" pageWidth="850" pageHeight="1100" math="0" shadow="0">
      <root>
        <mxCell id="0" />
        <mxCell id="1" parent="0" />
        <mxCell id="z-IcNjMhWLBwAkVsdXtI-36" value="Visualizer" style="swimlane;childLayout=stackLayout;horizontal=1;startSize=30;horizontalStack=0;rounded=1;fontSize=14;fontStyle=0;strokeWidth=2;resizeParent=0;resizeLast=1;shadow=0;dashed=0;align=center;" vertex="1" parent="1">
          <mxGeometry x="270" y="970" width="160" height="130" as="geometry" />
        </mxCell>
        <mxCell id="z-IcNjMhWLBwAkVsdXtI-37" value="+ Array of Cubes" style="align=left;strokeColor=none;fillColor=none;spacingLeft=4;fontSize=12;verticalAlign=top;resizable=0;rotatable=0;part=1;" vertex="1" parent="z-IcNjMhWLBwAkVsdXtI-36">
          <mxGeometry y="30" width="160" height="100" as="geometry" />
        </mxCell>
        <mxCell id="z-IcNjMhWLBwAkVsdXtI-39" value="Cube[ ]" style="swimlane;childLayout=stackLayout;horizontal=1;startSize=30;horizontalStack=0;rounded=1;fontSize=14;fontStyle=0;strokeWidth=2;resizeParent=0;resizeLast=1;shadow=0;dashed=0;align=center;" vertex="1" parent="1">
          <mxGeometry x="80" y="790" width="160" height="120" as="geometry" />
        </mxCell>
        <mxCell id="z-IcNjMhWLBwAkVsdXtI-40" value="+ the cubes" style="align=left;strokeColor=none;fillColor=none;spacingLeft=4;fontSize=12;verticalAlign=top;resizable=0;rotatable=0;part=1;" vertex="1" parent="z-IcNjMhWLBwAkVsdXtI-39">
          <mxGeometry y="30" width="160" height="90" as="geometry" />
        </mxCell>
        <mxCell id="z-IcNjMhWLBwAkVsdXtI-41" value="" style="endArrow=classic;html=1;rounded=0;exitX=0;exitY=0;exitDx=0;exitDy=0;entryX=1;entryY=1;entryDx=0;entryDy=0;" edge="1" parent="1" source="z-IcNjMhWLBwAkVsdXtI-36" target="z-IcNjMhWLBwAkVsdXtI-40">
          <mxGeometry width="50" height="50" relative="1" as="geometry">
            <mxPoint x="190" y="1010" as="sourcePoint" />
            <mxPoint x="240" y="960" as="targetPoint" />
          </mxGeometry>
        </mxCell>
      </root>
    </mxGraphModel>
  </diagram>
</mxfile>
